<svg width="93" height="91" viewBox="0 0 93 91" fill="none" xmlns="http://www.w3.org/2000/svg">
<path d="M77.7367 49.3144L77.5 49.8189V50.3762C77.5 71.0868 60.7107 87.8761 40 87.8761C19.2893 87.8761 2.5 71.0868 2.5 50.3762C2.5 29.6655 19.2893 12.8762 40 12.8762C43.0963 12.8762 46.641 12.1658 50.2712 11.1863C53.8214 10.2284 57.6259 8.96337 61.3788 7.71542L61.7023 7.60785C69.6 4.98205 77.0465 2.55851 82.5603 2.50102C85.2656 2.47281 87.0836 3.02887 88.2394 4.02111C89.3423 4.9679 90.2817 6.69443 90.3891 10.0347C90.6107 16.9196 87.2421 29.0527 77.7367 49.3144Z" fill="#333333" stroke="#E2404B" stroke-width="5"/>
<path d="M14.4073 48.7815L27.0744 37.4438" stroke="#E2404B" stroke-width="5" stroke-linecap="round"/>
<path d="M14.4073 48.7815L29.0661 57.3908" stroke="#E2404B" stroke-width="5" stroke-linecap="round"/>
<path d="M68.1555 48.522L53.7009 57.4699" stroke="#E2404B" stroke-width="5" stroke-linecap="round"/>
<path d="M68.1555 48.522L55.2282 37.4819" stroke="#E2404B" stroke-width="5" stroke-linecap="round"/>
<path d="M39.7919 66.8112C38.7119 66.8059 37.6825 66.6709 36.7038 66.4061C35.7452 66.1214 34.8872 65.6972 34.13 65.1335C33.3727 64.5698 32.7661 63.8769 32.3101 63.0546C31.8741 62.2325 31.6489 61.2614 31.6343 60.1413C31.6352 59.9613 31.6959 59.8116 31.8165 59.6922C31.9372 59.5528 32.0875 59.4835 32.2675 59.4844L35.1175 59.4983C35.3775 59.4996 35.5672 59.5705 35.6865 59.7111C35.8258 59.8518 35.9349 60.0423 36.0137 60.2827C36.1102 61.0032 36.3373 61.5943 36.695 62.056C37.0529 62.4978 37.5013 62.83 38.0402 63.0526C38.5992 63.2553 39.2187 63.3584 39.8987 63.3617C41.1587 63.3678 42.1207 62.9625 42.7847 62.1458C43.4687 61.3291 43.8142 60.1908 43.8214 58.7308L43.8685 49.0709L33.6986 49.0212C33.4786 49.0202 33.299 48.9493 33.1597 48.8086C33.0404 48.668 32.9812 48.4977 32.9822 48.2977L32.9924 46.1978C32.9934 45.9978 33.0542 45.8281 33.1749 45.6886C33.3156 45.5493 33.4959 45.4802 33.7159 45.4813L47.4258 45.5482C47.6458 45.5493 47.8254 45.6202 47.9647 45.7609C48.104 45.9015 48.1732 46.0819 48.1721 46.3019L48.1107 58.8717C48.1026 60.5317 47.7456 61.96 47.0398 63.1565C46.3539 64.3532 45.3895 65.2685 44.1463 65.9025C42.9233 66.5165 41.4718 66.8194 39.7919 66.8112Z" fill="#E2404B"/>
</svg>
